<?xml version="1.0" standalone="no"?><!DOCTYPE svg PUBLIC "-//W3C//DTD SVG 1.1//EN" "http://www.w3.org/Graphics/SVG/1.1/DTD/svg11.dtd"><svg class="icon" width="128px" height="128.00px" viewBox="0 0 1024 1024" version="1.1" xmlns="http://www.w3.org/2000/svg"><path d="M195.2 795.2c19.2-64 17.6-150.4 12.8-216-3.2-1.6-6.4-1.6-9.6-3.2 6.4 64 6.4 147.2-12.8 208-17.6 57.6-49.6 124.8-14.4 147.2-17.6-28.8 8-84.8 24-136z" fill="#E8C574" /><path d="M206.4 579.2c6.4 65.6 8 152-12.8 216-16 49.6-41.6 107.2-25.6 136 4.8 6.4 11.2 12.8 20.8 16 51.2 14.4 57.6-76.8 59.2-118.4 4.8-115.2 19.2-177.6 20.8-241.6-19.2 0-41.6-1.6-62.4-8z" fill="#FADA8B" /><path d="M776 659.2c-6.4-30.4 1.6-80 11.2-120-3.2 0-6.4 1.6-11.2 1.6-8 38.4-14.4 83.2-9.6 112 11.2 59.2 27.2 83.2 27.2 168 0 20.8 6.4 100.8 36.8 113.6-22.4-22.4-28.8-88-27.2-107.2 0-84.8-16-107.2-27.2-168z" fill="#DDC447" /><path d="M836.8 528c-14.4 6.4-32 9.6-49.6 12.8-8 38.4-17.6 89.6-11.2 120 11.2 59.2 27.2 83.2 27.2 168 0 19.2 4.8 83.2 27.2 107.2 8 8 17.6 11.2 30.4 4.8 59.2-25.6-6.4-236.8-25.6-286.4-11.2-30.4-6.4-84.8 1.6-126.4z" fill="#F4DE5B" /><path d="M390.4 609.6c-11.2 83.2 27.2 209.6-8 276.8-6.4 12.8-14.4 20.8-20.8 25.6 11.2-3.2 20.8-12.8 30.4-30.4 35.2-67.2-3.2-193.6 8-276.8 1.6-12.8 1.6-24 0-35.2-3.2 0-6.4 1.6-9.6 1.6 0 12.8 1.6 25.6 0 38.4z" fill="#DDC447" /><path d="M380.8 886.4c35.2-67.2-3.2-193.6 8-276.8 1.6-14.4 1.6-27.2-1.6-38.4-28.8 3.2-54.4 6.4-70.4 9.6 6.4 72 14.4 203.2-4.8 254.4-22.4 59.2 14.4 100.8 46.4 78.4 9.6-6.4 16-14.4 22.4-27.2z" fill="#F4DE5B" /><path d="M491.2 758.4c16-80 9.6-155.2 3.2-201.6h-12.8c6.4 46.4 12.8 121.6-3.2 201.6-25.6 131.2 19.2 196.8 51.2 190.4h1.6c-30.4-8-64-72-40-190.4z" fill="#D1AA5D" /><path d="M492.8 556.8c6.4 46.4 12.8 121.6-3.2 201.6-22.4 118.4 9.6 180.8 40 188.8 3.2 1.6 8 1.6 11.2 0 32-6.4 40-40 32-115.2s-14.4-187.2 3.2-259.2c1.6-8 3.2-14.4 4.8-22.4-30.4 3.2-59.2 4.8-88 6.4z" fill="#EABD7D" /><path d="M654.4 688c6.4-43.2-3.2-100.8-11.2-139.2h-9.6c8 36.8 16 89.6 9.6 129.6-9.6 70.4-20.8 180.8 19.2 220.8 6.4 6.4 12.8 11.2 17.6 14.4-1.6-1.6-4.8-3.2-6.4-6.4-40-38.4-28.8-148.8-19.2-219.2z" fill="#DDC447" /><path d="M643.2 548.8c8 36.8 17.6 94.4 11.2 139.2-9.6 70.4-20.8 180.8 19.2 220.8l6.4 6.4c38.4 32 70.4 9.6 52.8-43.2-19.2-56-33.6-161.6-24-219.2 6.4-35.2 20.8-75.2 28.8-110.4-28.8 3.2-60.8 4.8-94.4 6.4z" fill="#F4DE5B" /><path d="M267.2 254.4c-116.8 110.4-153.6 187.2-150.4 238.4-3.2-52.8 35.2-129.6 150.4-238.4zM408 147.2c-86.4 40-140.8 105.6-140.8 105.6s60.8-62.4 140.8-105.6zM787.2 539.2c17.6-1.6 35.2-6.4 49.6-12.8 102.4-40 113.6-161.6-100.8-334.4-49.6-40-97.6-62.4-144-70.4 11.2 14.4-48 41.6-22.4 86.4 24 41.6-86.4 62.4-80 105.6 9.6 62.4-12.8 76.8-30.4 112-16 32 35.2 73.6 35.2 100.8 0 14.4-16 24-40 32 8 0 16-1.6 25.6-1.6h12.8c28.8-1.6 57.6-3.2 88-4.8 17.6-1.6 35.2-1.6 52.8-3.2h9.6c33.6-1.6 65.6-3.2 96-6.4 12.8-1.6 24-1.6 36.8-3.2 3.2 1.6 6.4 1.6 11.2 0z" fill="#FDD97D" /><path d="M494.4 528c0-25.6-51.2-68.8-35.2-100.8 17.6-35.2 40-49.6 30.4-112-6.4-43.2 104-62.4 80-105.6-25.6-44.8 32-73.6 22.4-86.4-1.6-1.6-3.2-3.2-6.4-3.2-17.6-3.2-81.6-12.8-59.2 27.2 24 41.6-62.4-19.2-56 24 9.6 62.4-91.2 22.4-108.8 57.6-16 32-132.8 96-131.2 121.6 1.6 43.2-70.4 129.6-40 174.4 60.8 91.2-233.6 24 76.8-268.8-115.2 108.8-153.6 185.6-150.4 238.4 3.2 46.4 36.8 72 78.4 84.8 3.2 1.6 6.4 1.6 9.6 3.2 20.8 4.8 43.2 8 64 6.4 16 0 30.4-1.6 43.2-6.4h3.2c16-3.2 43.2-6.4 70.4-9.6 3.2 0 6.4-1.6 9.6-1.6 19.2-3.2 40-6.4 56-11.2 27.2-8 44.8-17.6 43.2-32z" fill="#E5B05C" /><path d="M190.4 523.2c-30.4-44.8 40-131.2 40-174.4 0-25.6 115.2-91.2 131.2-121.6 17.6-35.2 118.4 4.8 108.8-57.6-6.4-43.2 80 19.2 56-24-22.4-38.4 43.2-28.8 59.2-27.2 6.4 1.6 6.4 1.6-4.8-1.6-59.2-16-120 3.2-172.8 30.4-80 41.6-140.8 105.6-140.8 105.6-310.4 294.4-16 361.6-76.8 270.4z" fill="#C99345" /></svg>